<?xml version="1.0" encoding="UTF-8"?>
<svg xmlns="http://www.w3.org/2000/svg" xmlns:xlink="http://www.w3.org/1999/xlink" fill-opacity="1" color-rendering="auto" color-interpolation="auto" stroke="black" text-rendering="auto" stroke-linecap="square" width="378" stroke-miterlimit="10" stroke-opacity="1" shape-rendering="auto" fill="black" stroke-dasharray="none" font-weight="normal" stroke-width="1" height="170" font-family="'Dialog'" font-style="normal" stroke-linejoin="miter" font-size="12" stroke-dashoffset="0" image-rendering="auto">
  <!--Generated by ySVG-->
  <defs id="genericDefs"/>
  <g>
    <defs id="defs1">
      <clipPath clipPathUnits="userSpaceOnUse" id="clipPath1">
        <path d="M0 0 L378 0 L378 170 L0 170 L0 0 Z"/>
      </clipPath>
      <clipPath clipPathUnits="userSpaceOnUse" id="clipPath2">
        <path d="M255 215 L633 215 L633 385 L255 385 L255 215 Z"/>
      </clipPath>
    </defs>
    <g stroke-linecap="butt" transform="matrix(1,0,0,1,-255,-215)" stroke-miterlimit="1.45">
      <path fill="none" d="M285 270 L270 270 L270 270 L277 270" clip-path="url(#clipPath2)"/>
    </g>
    <g stroke-linecap="butt" transform="matrix(1,0,0,1,-255,-215)" stroke-miterlimit="1.45">
      <path d="M285 270 L273 265 L276 270 L273 275 Z" clip-path="url(#clipPath2)" stroke="none"/>
      <path fill="none" d="M315 270 L334.5 270" clip-path="url(#clipPath2)"/>
      <path d="M342.5 270 L330.5 265 L333.5 270 L330.5 275 Z" clip-path="url(#clipPath2)" stroke="none"/>
      <text x="320.2798" xml:space="preserve" y="244.5352" font-family="sans-serif" clip-path="url(#clipPath2)" stroke="none">a</text>
      <path fill="none" d="M285 330 L270 330 L270 330 L277 330" clip-path="url(#clipPath2)"/>
      <path d="M285 330 L273 325 L276 330 L273 335 Z" clip-path="url(#clipPath2)" stroke="none"/>
      <path fill="none" d="M315 330 L334.5 330" clip-path="url(#clipPath2)"/>
      <path d="M342.5 330 L330.5 325 L333.5 330 L330.5 335 Z" clip-path="url(#clipPath2)" stroke="none"/>
      <text x="319.5854" xml:space="preserve" y="364.5352" font-family="sans-serif" clip-path="url(#clipPath2)" stroke="none">b</text>
      <path fill="none" stroke-width="5" d="M388.344 300 L423 300" clip-path="url(#clipPath2)"/>
      <path stroke-width="5" d="M435 300 L417 292.5 L421.5 300 L417 307.5 Z" clip-path="url(#clipPath2)" stroke="none"/>
      <path fill="none" d="M493.4164 293.2918 L519.4282 280.2859" clip-path="url(#clipPath2)"/>
      <path d="M526.5836 276.7082 L513.6144 277.6027 L518.5337 280.7332 L518.0865 286.5469 Z" clip-path="url(#clipPath2)" stroke="none"/>
      <path fill="none" d="M555 270 L574.5 270" clip-path="url(#clipPath2)"/>
      <path d="M582.5 270 L570.5 265 L573.5 270 L570.5 275 Z" clip-path="url(#clipPath2)" stroke="none"/>
      <text x="560.2798" xml:space="preserve" y="244.5352" font-family="sans-serif" clip-path="url(#clipPath2)" stroke="none">a</text>
      <path fill="none" d="M493.4164 306.7082 L519.4282 319.7141" clip-path="url(#clipPath2)"/>
      <path d="M526.5836 323.2918 L518.0865 313.4531 L518.5337 319.2668 L513.6144 322.3973 Z" clip-path="url(#clipPath2)" stroke="none"/>
      <path fill="none" d="M555 330 L574.5 330" clip-path="url(#clipPath2)"/>
      <path d="M582.5 330 L570.5 325 L573.5 330 L570.5 335 Z" clip-path="url(#clipPath2)" stroke="none"/>
      <text x="559.5854" xml:space="preserve" y="364.5352" font-family="sans-serif" clip-path="url(#clipPath2)" stroke="none">b</text>
      <path fill="none" d="M465 300 L450 300 L450 300 L457 300" clip-path="url(#clipPath2)"/>
      <path d="M465 300 L453 295 L456 300 L453 305 Z" clip-path="url(#clipPath2)" stroke="none"/>
    </g>
    <g fill="rgb(255,204,0)" transform="matrix(1,0,0,1,-255,-215)" stroke="rgb(255,204,0)">
      <circle r="15" clip-path="url(#clipPath2)" cx="360" cy="270" stroke="none"/>
    </g>
    <g stroke-linecap="butt" transform="matrix(1,0,0,1,-255,-215)" stroke-miterlimit="1.45">
      <circle fill="none" r="15" clip-path="url(#clipPath2)" cx="360" cy="270"/>
    </g>
    <g fill="rgb(255,204,0)" transform="matrix(1,0,0,1,-255,-215)" stroke="rgb(255,204,0)">
      <circle r="15" clip-path="url(#clipPath2)" cx="300" cy="270" stroke="none"/>
    </g>
    <g stroke-miterlimit="1.45" font-family="sans-serif" transform="matrix(1,0,0,1,-255,-215)" stroke-linecap="butt">
      <text x="292.9746" xml:space="preserve" y="274.5352" clip-path="url(#clipPath2)" stroke="none">S1</text>
      <circle fill="none" r="15" clip-path="url(#clipPath2)" cx="300" cy="270"/>
      <text x="352.9746" xml:space="preserve" y="274.5352" clip-path="url(#clipPath2)" stroke="none">S2</text>
      <circle fill="none" r="17.5" clip-path="url(#clipPath2)" cx="360" cy="270"/>
    </g>
    <g fill="rgb(255,204,0)" transform="matrix(1,0,0,1,-255,-215)" stroke="rgb(255,204,0)">
      <circle r="15" clip-path="url(#clipPath2)" cx="360" cy="330" stroke="none"/>
    </g>
    <g stroke-linecap="butt" transform="matrix(1,0,0,1,-255,-215)" stroke-miterlimit="1.45">
      <circle fill="none" r="15" clip-path="url(#clipPath2)" cx="360" cy="330"/>
    </g>
    <g fill="rgb(255,204,0)" transform="matrix(1,0,0,1,-255,-215)" stroke="rgb(255,204,0)">
      <circle r="15" clip-path="url(#clipPath2)" cx="300" cy="330" stroke="none"/>
    </g>
    <g stroke-miterlimit="1.45" font-family="sans-serif" transform="matrix(1,0,0,1,-255,-215)" stroke-linecap="butt">
      <text x="292.9746" xml:space="preserve" y="334.5352" clip-path="url(#clipPath2)" stroke="none">S3</text>
      <circle fill="none" r="15" clip-path="url(#clipPath2)" cx="300" cy="330"/>
      <text x="352.9746" xml:space="preserve" y="334.5352" clip-path="url(#clipPath2)" stroke="none">S4</text>
      <circle fill="none" r="17.5" clip-path="url(#clipPath2)" cx="360" cy="330"/>
    </g>
    <g fill="rgb(255,204,0)" transform="matrix(1,0,0,1,-255,-215)" stroke="rgb(255,204,0)">
      <circle r="15" clip-path="url(#clipPath2)" cx="600" cy="270" stroke="none"/>
    </g>
    <g stroke-linecap="butt" transform="matrix(1,0,0,1,-255,-215)" stroke-miterlimit="1.45">
      <circle fill="none" r="15" clip-path="url(#clipPath2)" cx="600" cy="270"/>
    </g>
    <g fill="rgb(255,204,0)" transform="matrix(1,0,0,1,-255,-215)" stroke="rgb(255,204,0)">
      <circle r="15" clip-path="url(#clipPath2)" cx="540" cy="270" stroke="none"/>
    </g>
    <g stroke-miterlimit="1.45" font-family="sans-serif" transform="matrix(1,0,0,1,-255,-215)" stroke-linecap="butt">
      <text x="532.9746" xml:space="preserve" y="274.5352" clip-path="url(#clipPath2)" stroke="none">S1</text>
      <circle fill="none" r="15" clip-path="url(#clipPath2)" cx="540" cy="270"/>
      <text x="592.9746" xml:space="preserve" y="274.5352" clip-path="url(#clipPath2)" stroke="none">S2</text>
      <circle fill="none" r="17.5" clip-path="url(#clipPath2)" cx="600" cy="270"/>
    </g>
    <g fill="rgb(255,204,0)" transform="matrix(1,0,0,1,-255,-215)" stroke="rgb(255,204,0)">
      <circle r="15" clip-path="url(#clipPath2)" cx="600" cy="330" stroke="none"/>
    </g>
    <g stroke-linecap="butt" transform="matrix(1,0,0,1,-255,-215)" stroke-miterlimit="1.45">
      <circle fill="none" r="15" clip-path="url(#clipPath2)" cx="600" cy="330"/>
    </g>
    <g fill="rgb(255,204,0)" transform="matrix(1,0,0,1,-255,-215)" stroke="rgb(255,204,0)">
      <circle r="15" clip-path="url(#clipPath2)" cx="540" cy="330" stroke="none"/>
    </g>
    <g stroke-miterlimit="1.45" font-family="sans-serif" transform="matrix(1,0,0,1,-255,-215)" stroke-linecap="butt">
      <text x="532.9746" xml:space="preserve" y="334.5352" clip-path="url(#clipPath2)" stroke="none">S3</text>
      <circle fill="none" r="15" clip-path="url(#clipPath2)" cx="540" cy="330"/>
      <text x="592.9746" xml:space="preserve" y="334.5352" clip-path="url(#clipPath2)" stroke="none">S4</text>
      <circle fill="none" r="17.5" clip-path="url(#clipPath2)" cx="600" cy="330"/>
    </g>
    <g fill="rgb(255,204,0)" transform="matrix(1,0,0,1,-255,-215)" stroke="rgb(255,204,0)">
      <circle r="15" clip-path="url(#clipPath2)" cx="480" cy="300" stroke="none"/>
    </g>
    <g stroke-miterlimit="1.45" font-family="sans-serif" transform="matrix(1,0,0,1,-255,-215)" stroke-linecap="butt">
      <text x="472.9746" xml:space="preserve" y="304.5352" clip-path="url(#clipPath2)" stroke="none">S5</text>
      <circle fill="none" r="15" clip-path="url(#clipPath2)" cx="480" cy="300"/>
    </g>
  </g>
</svg>
