<?xml version="1.0" encoding="UTF-8"?>
<svg xmlns="http://www.w3.org/2000/svg" xmlns:xlink="http://www.w3.org/1999/xlink" fill-opacity="1" color-rendering="auto" color-interpolation="auto" stroke="black" text-rendering="auto" stroke-linecap="square" width="168" stroke-miterlimit="10" stroke-opacity="1" shape-rendering="auto" fill="black" stroke-dasharray="none" font-weight="normal" stroke-width="1" height="88" font-family="'Dialog'" font-style="normal" stroke-linejoin="miter" font-size="12" stroke-dashoffset="0" image-rendering="auto">
  <!--Generated by ySVG-->
  <defs id="genericDefs"/>
  <g>
    <defs id="defs1">
      <clipPath clipPathUnits="userSpaceOnUse" id="clipPath1">
        <path d="M0 0 L168 0 L168 88 L0 88 L0 0 Z"/>
      </clipPath>
      <clipPath clipPathUnits="userSpaceOnUse" id="clipPath2">
        <path d="M135 125 L303 125 L303 213 L135 213 L135 125 Z"/>
      </clipPath>
    </defs>
    <g stroke-linecap="butt" transform="matrix(1,0,0,1,-135,-125)" stroke-miterlimit="1.45">
      <path fill="none" d="M165 180 L150 180 L150 180 L157 180" clip-path="url(#clipPath2)"/>
    </g>
    <g stroke-linecap="butt" transform="matrix(1,0,0,1,-135,-125)" stroke-miterlimit="1.45">
      <path d="M165 180 L153 175 L156 180 L153 185 Z" clip-path="url(#clipPath2)" stroke="none"/>
      <path fill="none" d="M195 180 L244.5 180" clip-path="url(#clipPath2)"/>
      <path d="M252.5 180 L240.5 175 L243.5 180 L240.5 185 Z" clip-path="url(#clipPath2)" stroke="none"/>
      <text x="215.2798" xml:space="preserve" y="154.5352" font-family="sans-serif" clip-path="url(#clipPath2)" stroke="none">a</text>
    </g>
    <g fill="rgb(255,204,0)" transform="matrix(1,0,0,1,-135,-125)" stroke="rgb(255,204,0)">
      <circle r="15" clip-path="url(#clipPath2)" cx="270" cy="180" stroke="none"/>
    </g>
    <g stroke-linecap="butt" transform="matrix(1,0,0,1,-135,-125)" stroke-miterlimit="1.45">
      <circle fill="none" r="15" clip-path="url(#clipPath2)" cx="270" cy="180"/>
    </g>
    <g fill="rgb(255,204,0)" transform="matrix(1,0,0,1,-135,-125)" stroke="rgb(255,204,0)">
      <circle r="15" clip-path="url(#clipPath2)" cx="180" cy="180" stroke="none"/>
    </g>
    <g stroke-miterlimit="1.45" font-family="sans-serif" transform="matrix(1,0,0,1,-135,-125)" stroke-linecap="butt">
      <text x="172.9746" xml:space="preserve" y="184.5352" clip-path="url(#clipPath2)" stroke="none">S1</text>
      <circle fill="none" r="15" clip-path="url(#clipPath2)" cx="180" cy="180"/>
      <text x="262.9746" xml:space="preserve" y="184.5352" clip-path="url(#clipPath2)" stroke="none">S2</text>
      <circle fill="none" r="17.5" clip-path="url(#clipPath2)" cx="270" cy="180"/>
    </g>
  </g>
</svg>
