<?xml version="1.0" encoding="UTF-8"?>
<svg xmlns="http://www.w3.org/2000/svg" xmlns:xlink="http://www.w3.org/1999/xlink" fill-opacity="1" color-rendering="auto" color-interpolation="auto" stroke="black" text-rendering="auto" stroke-linecap="square" width="288" stroke-miterlimit="10" stroke-opacity="1" shape-rendering="auto" fill="black" stroke-dasharray="none" font-weight="normal" stroke-width="1" height="170" font-family="'Dialog'" font-style="normal" stroke-linejoin="miter" font-size="12" stroke-dashoffset="0" image-rendering="auto">
  <!--Generated by ySVG-->
  <defs id="genericDefs"/>
  <g>
    <defs id="defs1">
      <clipPath clipPathUnits="userSpaceOnUse" id="clipPath1">
        <path d="M0 0 L288 0 L288 170 L0 170 L0 0 Z"/>
      </clipPath>
      <clipPath clipPathUnits="userSpaceOnUse" id="clipPath2">
        <path d="M195 155 L483 155 L483 325 L195 325 L195 155 Z"/>
      </clipPath>
    </defs>
    <g stroke-linecap="butt" transform="matrix(1,0,0,1,-195,-155)" stroke-miterlimit="1.45">
      <path fill="none" d="M225 210 L210 210 L210 210 L217 210" clip-path="url(#clipPath2)"/>
    </g>
    <g stroke-linecap="butt" transform="matrix(1,0,0,1,-195,-155)" stroke-miterlimit="1.45">
      <path d="M225 210 L213 205 L216 210 L213 215 Z" clip-path="url(#clipPath2)" stroke="none"/>
      <path fill="none" d="M255 210 L274.5 210" clip-path="url(#clipPath2)"/>
      <path d="M282.5 210 L270.5 205 L273.5 210 L270.5 215 Z" clip-path="url(#clipPath2)" stroke="none"/>
      <text x="260.2798" xml:space="preserve" y="184.5352" font-family="sans-serif" clip-path="url(#clipPath2)" stroke="none">a</text>
      <path fill="none" d="M225 270 L210 270 L210 270 L217 270" clip-path="url(#clipPath2)"/>
      <path d="M225 270 L213 265 L216 270 L213 275 Z" clip-path="url(#clipPath2)" stroke="none"/>
      <path fill="none" d="M255 270 L274.5 270" clip-path="url(#clipPath2)"/>
      <path d="M282.5 270 L270.5 265 L273.5 270 L270.5 275 Z" clip-path="url(#clipPath2)" stroke="none"/>
      <text x="259.5854" xml:space="preserve" y="304.5352" font-family="sans-serif" clip-path="url(#clipPath2)" stroke="none">b</text>
      <path fill="none" stroke-width="5" d="M315 240 L363 240" clip-path="url(#clipPath2)"/>
      <path stroke-width="5" d="M375 240 L357 232.5 L361.5 240 L357 247.5 Z" clip-path="url(#clipPath2)" stroke="none"/>
      <path fill="none" d="M375 210 L360 210 L360 210 L367 210" clip-path="url(#clipPath2)"/>
      <path d="M375 210 L363 205 L366 210 L363 215 Z" clip-path="url(#clipPath2)" stroke="none"/>
      <path fill="none" d="M405 210 L427 210" clip-path="url(#clipPath2)"/>
      <path d="M435 210 L423 205 L426 210 L423 215 Z" clip-path="url(#clipPath2)" stroke="none"/>
      <text x="416.6865" xml:space="preserve" y="184.5352" font-family="sans-serif" clip-path="url(#clipPath2)" stroke="none">a</text>
      <path fill="none" d="M450 225 L450 240 L390 240 L390 247" clip-path="url(#clipPath2)"/>
      <path d="M390 255 L395 243 L390 246 L385 243 Z" clip-path="url(#clipPath2)" stroke="none"/>
      <path fill="none" d="M405 270 L424.5 270" clip-path="url(#clipPath2)"/>
      <path d="M432.5 270 L420.5 265 L423.5 270 L420.5 275 Z" clip-path="url(#clipPath2)" stroke="none"/>
      <text x="409.5854" xml:space="preserve" y="304.5352" font-family="sans-serif" clip-path="url(#clipPath2)" stroke="none">b</text>
    </g>
    <g fill="rgb(255,204,0)" transform="matrix(1,0,0,1,-195,-155)" stroke="rgb(255,204,0)">
      <circle r="15" clip-path="url(#clipPath2)" cx="300" cy="210" stroke="none"/>
    </g>
    <g stroke-linecap="butt" transform="matrix(1,0,0,1,-195,-155)" stroke-miterlimit="1.45">
      <circle fill="none" r="15" clip-path="url(#clipPath2)" cx="300" cy="210"/>
    </g>
    <g fill="rgb(255,204,0)" transform="matrix(1,0,0,1,-195,-155)" stroke="rgb(255,204,0)">
      <circle r="15" clip-path="url(#clipPath2)" cx="240" cy="210" stroke="none"/>
    </g>
    <g stroke-miterlimit="1.45" font-family="sans-serif" transform="matrix(1,0,0,1,-195,-155)" stroke-linecap="butt">
      <text x="232.9746" xml:space="preserve" y="214.5352" clip-path="url(#clipPath2)" stroke="none">S1</text>
      <circle fill="none" r="15" clip-path="url(#clipPath2)" cx="240" cy="210"/>
      <text x="292.9746" xml:space="preserve" y="214.5352" clip-path="url(#clipPath2)" stroke="none">S2</text>
      <circle fill="none" r="17.5" clip-path="url(#clipPath2)" cx="300" cy="210"/>
    </g>
    <g fill="rgb(255,204,0)" transform="matrix(1,0,0,1,-195,-155)" stroke="rgb(255,204,0)">
      <circle r="15" clip-path="url(#clipPath2)" cx="300" cy="270" stroke="none"/>
    </g>
    <g stroke-linecap="butt" transform="matrix(1,0,0,1,-195,-155)" stroke-miterlimit="1.45">
      <circle fill="none" r="15" clip-path="url(#clipPath2)" cx="300" cy="270"/>
    </g>
    <g fill="rgb(255,204,0)" transform="matrix(1,0,0,1,-195,-155)" stroke="rgb(255,204,0)">
      <circle r="15" clip-path="url(#clipPath2)" cx="240" cy="270" stroke="none"/>
    </g>
    <g stroke-miterlimit="1.45" font-family="sans-serif" transform="matrix(1,0,0,1,-195,-155)" stroke-linecap="butt">
      <text x="232.9746" xml:space="preserve" y="274.5352" clip-path="url(#clipPath2)" stroke="none">S3</text>
      <circle fill="none" r="15" clip-path="url(#clipPath2)" cx="240" cy="270"/>
      <text x="292.9746" xml:space="preserve" y="274.5352" clip-path="url(#clipPath2)" stroke="none">S4</text>
      <circle fill="none" r="17.5" clip-path="url(#clipPath2)" cx="300" cy="270"/>
    </g>
    <g fill="rgb(255,204,0)" transform="matrix(1,0,0,1,-195,-155)" stroke="rgb(255,204,0)">
      <circle r="15" clip-path="url(#clipPath2)" cx="390" cy="210" stroke="none"/>
    </g>
    <g stroke-miterlimit="1.45" font-family="sans-serif" transform="matrix(1,0,0,1,-195,-155)" stroke-linecap="butt">
      <text x="382.9746" xml:space="preserve" y="214.5352" clip-path="url(#clipPath2)" stroke="none">S1</text>
      <circle fill="none" r="15" clip-path="url(#clipPath2)" cx="390" cy="210"/>
    </g>
    <g fill="rgb(255,204,0)" transform="matrix(1,0,0,1,-195,-155)" stroke="rgb(255,204,0)">
      <circle r="15" clip-path="url(#clipPath2)" cx="450" cy="210" stroke="none"/>
    </g>
    <g stroke-miterlimit="1.45" font-family="sans-serif" transform="matrix(1,0,0,1,-195,-155)" stroke-linecap="butt">
      <text x="442.9746" xml:space="preserve" y="214.5352" clip-path="url(#clipPath2)" stroke="none">S2</text>
      <circle fill="none" r="15" clip-path="url(#clipPath2)" cx="450" cy="210"/>
    </g>
    <g fill="rgb(255,204,0)" transform="matrix(1,0,0,1,-195,-155)" stroke="rgb(255,204,0)">
      <circle r="15" clip-path="url(#clipPath2)" cx="450" cy="270" stroke="none"/>
    </g>
    <g stroke-linecap="butt" transform="matrix(1,0,0,1,-195,-155)" stroke-miterlimit="1.45">
      <circle fill="none" r="15" clip-path="url(#clipPath2)" cx="450" cy="270"/>
    </g>
    <g fill="rgb(255,204,0)" transform="matrix(1,0,0,1,-195,-155)" stroke="rgb(255,204,0)">
      <circle r="15" clip-path="url(#clipPath2)" cx="390" cy="270" stroke="none"/>
    </g>
    <g stroke-miterlimit="1.45" font-family="sans-serif" transform="matrix(1,0,0,1,-195,-155)" stroke-linecap="butt">
      <text x="382.9746" xml:space="preserve" y="274.5352" clip-path="url(#clipPath2)" stroke="none">S3</text>
      <circle fill="none" r="15" clip-path="url(#clipPath2)" cx="390" cy="270"/>
      <text x="442.9746" xml:space="preserve" y="274.5352" clip-path="url(#clipPath2)" stroke="none">S4</text>
      <circle fill="none" r="17.5" clip-path="url(#clipPath2)" cx="450" cy="270"/>
    </g>
  </g>
</svg>
