<?xml version="1.0" encoding="UTF-8"?>
<svg xmlns="http://www.w3.org/2000/svg" xmlns:xlink="http://www.w3.org/1999/xlink" fill-opacity="1" color-rendering="auto" color-interpolation="auto" stroke="black" text-rendering="auto" stroke-linecap="square" width="468" stroke-miterlimit="10" stroke-opacity="1" shape-rendering="auto" fill="black" stroke-dasharray="none" font-weight="normal" stroke-width="1" height="210" font-family="'Dialog'" font-style="normal" stroke-linejoin="miter" font-size="12" stroke-dashoffset="0" image-rendering="auto">
  <!--Generated by ySVG-->
  <defs id="genericDefs"/>
  <g>
    <defs id="defs1">
      <clipPath clipPathUnits="userSpaceOnUse" id="clipPath1">
        <path d="M0 0 L468 0 L468 210 L0 210 L0 0 Z"/>
      </clipPath>
      <clipPath clipPathUnits="userSpaceOnUse" id="clipPath2">
        <path d="M225 75 L693 75 L693 285 L225 285 L225 75 Z"/>
      </clipPath>
    </defs>
    <g stroke-linecap="butt" transform="matrix(1,0,0,1,-225,-75)" stroke-miterlimit="1.45">
      <path fill="none" d="M283.4164 173.2918 L309.4282 160.2859" clip-path="url(#clipPath2)"/>
    </g>
    <g stroke-linecap="butt" transform="matrix(1,0,0,1,-225,-75)" stroke-miterlimit="1.45">
      <path d="M316.5836 156.7082 L303.6144 157.6026 L308.5338 160.7331 L308.0865 166.5469 Z" clip-path="url(#clipPath2)" stroke="none"/>
      <path fill="none" d="M345 150 L364.5 150" clip-path="url(#clipPath2)"/>
      <path d="M372.5 150 L360.5 145 L363.5 150 L360.5 155 Z" clip-path="url(#clipPath2)" stroke="none"/>
      <text x="350.2798" xml:space="preserve" y="124.5352" font-family="sans-serif" clip-path="url(#clipPath2)" stroke="none">a</text>
      <path fill="none" d="M283.4164 186.7082 L309.4282 199.7141" clip-path="url(#clipPath2)"/>
      <path d="M316.5836 203.2918 L308.0865 193.4531 L308.5338 199.2669 L303.6144 202.3974 Z" clip-path="url(#clipPath2)" stroke="none"/>
      <path fill="none" d="M345 210 L364.5 210" clip-path="url(#clipPath2)"/>
      <path d="M372.5 210 L360.5 205 L363.5 210 L360.5 215 Z" clip-path="url(#clipPath2)" stroke="none"/>
      <text x="349.5854" xml:space="preserve" y="244.5352" font-family="sans-serif" clip-path="url(#clipPath2)" stroke="none">b</text>
      <path fill="none" d="M255 180 L240 180 L240 180 L247 180" clip-path="url(#clipPath2)"/>
      <path d="M255 180 L243 175 L246 180 L243 185 Z" clip-path="url(#clipPath2)" stroke="none"/>
      <path fill="none" d="M553.4164 173.2918 L579.4282 160.2859" clip-path="url(#clipPath2)"/>
      <path d="M586.5836 156.7082 L573.6144 157.6026 L578.5337 160.7331 L578.0865 166.5469 Z" clip-path="url(#clipPath2)" stroke="none"/>
      <path fill="none" d="M615 150 L634.5 150" clip-path="url(#clipPath2)"/>
      <path d="M642.5 150 L630.5 145 L633.5 150 L630.5 155 Z" clip-path="url(#clipPath2)" stroke="none"/>
      <text x="620.2798" xml:space="preserve" y="124.5352" font-family="sans-serif" clip-path="url(#clipPath2)" stroke="none">a</text>
      <path fill="none" d="M553.4164 186.7082 L579.4282 199.7141" clip-path="url(#clipPath2)"/>
      <path d="M586.5836 203.2918 L578.0865 193.4531 L578.5337 199.2669 L573.6144 202.3974 Z" clip-path="url(#clipPath2)" stroke="none"/>
      <path fill="none" d="M615 210 L634.5 210" clip-path="url(#clipPath2)"/>
      <path d="M642.5 210 L630.5 205 L633.5 210 L630.5 215 Z" clip-path="url(#clipPath2)" stroke="none"/>
      <text x="619.5854" xml:space="preserve" y="244.5352" font-family="sans-serif" clip-path="url(#clipPath2)" stroke="none">b</text>
      <path fill="none" d="M525 180 L510 180 L510 180 L517 180" clip-path="url(#clipPath2)"/>
      <path d="M525 180 L513 175 L516 180 L513 185 Z" clip-path="url(#clipPath2)" stroke="none"/>
      <path fill="none" d="M660 132.5 L660 90 L570 90 L548.0638 155.8086" clip-path="url(#clipPath2)"/>
      <path d="M545.5339 163.398 L554.0721 153.595 L548.38 154.8599 L544.5853 150.4327 Z" clip-path="url(#clipPath2)" stroke="none"/>
      <path fill="none" d="M660 227.5 L660 270 L570 270 L548.0638 204.1914" clip-path="url(#clipPath2)"/>
      <path d="M545.5339 196.602 L544.5853 209.5673 L548.38 205.1401 L554.0721 206.405 Z" clip-path="url(#clipPath2)" stroke="none"/>
      <path fill="none" stroke-width="5" d="M435 180 L483 180" clip-path="url(#clipPath2)"/>
      <path stroke-width="5" d="M495 180 L477 172.5 L481.5 180 L477 187.5 Z" clip-path="url(#clipPath2)" stroke="none"/>
    </g>
    <g fill="rgb(255,204,0)" transform="matrix(1,0,0,1,-225,-75)" stroke="rgb(255,204,0)">
      <circle r="15" clip-path="url(#clipPath2)" cx="390" cy="150" stroke="none"/>
    </g>
    <g stroke-linecap="butt" transform="matrix(1,0,0,1,-225,-75)" stroke-miterlimit="1.45">
      <circle fill="none" r="15" clip-path="url(#clipPath2)" cx="390" cy="150"/>
    </g>
    <g fill="rgb(255,204,0)" transform="matrix(1,0,0,1,-225,-75)" stroke="rgb(255,204,0)">
      <circle r="15" clip-path="url(#clipPath2)" cx="330" cy="150" stroke="none"/>
    </g>
    <g stroke-miterlimit="1.45" font-family="sans-serif" transform="matrix(1,0,0,1,-225,-75)" stroke-linecap="butt">
      <text x="322.9746" xml:space="preserve" y="154.5352" clip-path="url(#clipPath2)" stroke="none">S1</text>
      <circle fill="none" r="15" clip-path="url(#clipPath2)" cx="330" cy="150"/>
      <text x="382.9746" xml:space="preserve" y="154.5352" clip-path="url(#clipPath2)" stroke="none">S2</text>
      <circle fill="none" r="17.5" clip-path="url(#clipPath2)" cx="390" cy="150"/>
    </g>
    <g fill="rgb(255,204,0)" transform="matrix(1,0,0,1,-225,-75)" stroke="rgb(255,204,0)">
      <circle r="15" clip-path="url(#clipPath2)" cx="390" cy="210" stroke="none"/>
    </g>
    <g stroke-linecap="butt" transform="matrix(1,0,0,1,-225,-75)" stroke-miterlimit="1.45">
      <circle fill="none" r="15" clip-path="url(#clipPath2)" cx="390" cy="210"/>
    </g>
    <g fill="rgb(255,204,0)" transform="matrix(1,0,0,1,-225,-75)" stroke="rgb(255,204,0)">
      <circle r="15" clip-path="url(#clipPath2)" cx="330" cy="210" stroke="none"/>
    </g>
    <g stroke-miterlimit="1.45" font-family="sans-serif" transform="matrix(1,0,0,1,-225,-75)" stroke-linecap="butt">
      <text x="322.9746" xml:space="preserve" y="214.5352" clip-path="url(#clipPath2)" stroke="none">S3</text>
      <circle fill="none" r="15" clip-path="url(#clipPath2)" cx="330" cy="210"/>
      <text x="382.9746" xml:space="preserve" y="214.5352" clip-path="url(#clipPath2)" stroke="none">S4</text>
      <circle fill="none" r="17.5" clip-path="url(#clipPath2)" cx="390" cy="210"/>
    </g>
    <g fill="rgb(255,204,0)" transform="matrix(1,0,0,1,-225,-75)" stroke="rgb(255,204,0)">
      <circle r="15" clip-path="url(#clipPath2)" cx="270" cy="180" stroke="none"/>
    </g>
    <g stroke-miterlimit="1.45" font-family="sans-serif" transform="matrix(1,0,0,1,-225,-75)" stroke-linecap="butt">
      <text x="262.9746" xml:space="preserve" y="184.5352" clip-path="url(#clipPath2)" stroke="none">S5</text>
      <circle fill="none" r="15" clip-path="url(#clipPath2)" cx="270" cy="180"/>
    </g>
    <g fill="rgb(255,204,0)" transform="matrix(1,0,0,1,-225,-75)" stroke="rgb(255,204,0)">
      <circle r="15" clip-path="url(#clipPath2)" cx="660" cy="150" stroke="none"/>
    </g>
    <g stroke-linecap="butt" transform="matrix(1,0,0,1,-225,-75)" stroke-miterlimit="1.45">
      <circle fill="none" r="15" clip-path="url(#clipPath2)" cx="660" cy="150"/>
    </g>
    <g fill="rgb(255,204,0)" transform="matrix(1,0,0,1,-225,-75)" stroke="rgb(255,204,0)">
      <circle r="15" clip-path="url(#clipPath2)" cx="600" cy="150" stroke="none"/>
    </g>
    <g stroke-miterlimit="1.45" font-family="sans-serif" transform="matrix(1,0,0,1,-225,-75)" stroke-linecap="butt">
      <text x="592.9746" xml:space="preserve" y="154.5352" clip-path="url(#clipPath2)" stroke="none">S1</text>
      <circle fill="none" r="15" clip-path="url(#clipPath2)" cx="600" cy="150"/>
      <text x="652.9746" xml:space="preserve" y="154.5352" clip-path="url(#clipPath2)" stroke="none">S2</text>
      <circle fill="none" r="17.5" clip-path="url(#clipPath2)" cx="660" cy="150"/>
    </g>
    <g fill="rgb(255,204,0)" transform="matrix(1,0,0,1,-225,-75)" stroke="rgb(255,204,0)">
      <circle r="15" clip-path="url(#clipPath2)" cx="660" cy="210" stroke="none"/>
    </g>
    <g stroke-linecap="butt" transform="matrix(1,0,0,1,-225,-75)" stroke-miterlimit="1.45">
      <circle fill="none" r="15" clip-path="url(#clipPath2)" cx="660" cy="210"/>
    </g>
    <g fill="rgb(255,204,0)" transform="matrix(1,0,0,1,-225,-75)" stroke="rgb(255,204,0)">
      <circle r="15" clip-path="url(#clipPath2)" cx="600" cy="210" stroke="none"/>
    </g>
    <g stroke-miterlimit="1.45" font-family="sans-serif" transform="matrix(1,0,0,1,-225,-75)" stroke-linecap="butt">
      <text x="592.9746" xml:space="preserve" y="214.5352" clip-path="url(#clipPath2)" stroke="none">S3</text>
      <circle fill="none" r="15" clip-path="url(#clipPath2)" cx="600" cy="210"/>
      <text x="652.9746" xml:space="preserve" y="214.5352" clip-path="url(#clipPath2)" stroke="none">S4</text>
      <circle fill="none" r="17.5" clip-path="url(#clipPath2)" cx="660" cy="210"/>
    </g>
    <g fill="rgb(255,204,0)" transform="matrix(1,0,0,1,-225,-75)" stroke="rgb(255,204,0)">
      <circle r="15" clip-path="url(#clipPath2)" cx="540" cy="180" stroke="none"/>
    </g>
    <g stroke-miterlimit="1.45" font-family="sans-serif" transform="matrix(1,0,0,1,-225,-75)" stroke-linecap="butt">
      <text x="532.9746" xml:space="preserve" y="184.5352" clip-path="url(#clipPath2)" stroke="none">S5</text>
      <circle fill="none" r="15" clip-path="url(#clipPath2)" cx="540" cy="180"/>
      <circle fill="none" r="17.5" clip-path="url(#clipPath2)" cx="540" cy="180"/>
    </g>
  </g>
</svg>
