<?xml version="1.0" encoding="UTF-8"?>
<svg xmlns="http://www.w3.org/2000/svg" xmlns:xlink="http://www.w3.org/1999/xlink" fill-opacity="1" color-rendering="auto" color-interpolation="auto" stroke="black" text-rendering="auto" stroke-linecap="square" width="492" stroke-miterlimit="10" stroke-opacity="1" shape-rendering="auto" fill="black" stroke-dasharray="none" font-weight="normal" stroke-width="1" height="454" font-family="'Dialog'" font-style="normal" stroke-linejoin="miter" font-size="12" stroke-dashoffset="0" image-rendering="auto">
  <!--Generated by ySVG-->
  <defs id="genericDefs"/>
  <g>
    <defs id="defs1">
      <clipPath clipPathUnits="userSpaceOnUse" id="clipPath1">
        <path d="M0 0 L492 0 L492 454 L0 454 L0 0 Z"/>
      </clipPath>
      <clipPath clipPathUnits="userSpaceOnUse" id="clipPath2">
        <path d="M176 96 L668 96 L668 550 L176 550 L176 96 Z"/>
      </clipPath>
      <clipPath clipPathUnits="userSpaceOnUse" id="clipPath3">
        <path d="M310 111 L310 247 L529 247 L529 111 Z"/>
      </clipPath>
      <clipPath clipPathUnits="userSpaceOnUse" id="clipPath4">
        <path d="M0 0 L0 90 L205 90 L205 0 Z"/>
      </clipPath>
      <clipPath clipPathUnits="userSpaceOnUse" id="clipPath5">
        <path d="M275 305 L275 533 L563 533 L563 305 Z"/>
      </clipPath>
    </defs>
    <g stroke-linecap="butt" transform="matrix(1,0,0,1,-176,-96)" stroke-miterlimit="1.45">
      <path fill="none" d="M420 248.3496 L420 297.8039" clip-path="url(#clipPath2)"/>
    </g>
    <g stroke-linecap="butt" transform="matrix(1,0,0,1,-176,-96)" stroke-miterlimit="1.45">
      <path d="M420 305.8039 L425 293.8039 L420 296.8039 L415 293.8039 Z" clip-path="url(#clipPath2)" stroke="none"/>
      <text x="438.4297" xml:space="preserve" y="282.2827" font-family="sans-serif" clip-path="url(#clipPath2)" stroke="none">p_treeRoot</text>
      <path fill="none" d="M275.815 390 L240 390 L240 330 L267.79 330" clip-path="url(#clipPath2)"/>
      <path d="M275.79 330 L263.79 325 L266.79 330 L263.79 335 Z" clip-path="url(#clipPath2)" stroke="none"/>
      <text x="193.6963" xml:space="preserve" y="364.5352" font-family="sans-serif" clip-path="url(#clipPath2)" stroke="none">p_left</text>
      <path fill="none" d="M564.205 390 L600 390 L600 390 L600 330 L572.23 330" clip-path="url(#clipPath2)"/>
      <path d="M564.23 330 L576.23 335 L573.23 330 L576.23 325 Z" clip-path="url(#clipPath2)" stroke="none"/>
      <text x="609.3252" xml:space="preserve" y="364.5352" font-family="sans-serif" clip-path="url(#clipPath2)" stroke="none">p_right</text>
    </g>
    <g fill="rgb(255,204,0)" transform="matrix(1,0,0,1,-176,-96)" stroke="rgb(255,204,0)">
      <rect x="311" width="217" height="134" y="112" clip-path="url(#clipPath2)" stroke="none"/>
      <rect x="310" y="111" clip-path="url(#clipPath2)" fill="yellow" width="1" height="136" stroke="none"/>
      <rect x="311" y="111" clip-path="url(#clipPath2)" fill="yellow" width="217" height="1" stroke="none"/>
      <rect x="311" y="246" clip-path="url(#clipPath2)" fill="rgb(178,142,0)" width="218" height="1" stroke="none"/>
      <rect x="528" y="111" clip-path="url(#clipPath2)" fill="rgb(178,142,0)" width="1" height="135" stroke="none"/>
    </g>
    <g font-size="13" stroke-miterlimit="1.45" font-weight="bold" font-family="sans-serif" transform="matrix(1,0,0,1,-176,-96)" stroke-linecap="butt">
      <text x="357.5613" xml:space="preserve" y="129.1934" clip-path="url(#clipPath3)" stroke="none">RegularExpression</text>
    </g>
    <g transform="matrix(1,0,0,1,-176,-96)">
      <line y2="136" fill="none" x1="311" clip-path="url(#clipPath3)" x2="529" y1="136"/>
      <line y2="146" fill="none" x1="311" clip-path="url(#clipPath3)" x2="529" y1="146"/>
    </g>
    <g stroke-miterlimit="1.45" font-family="sans-serif" transform="matrix(1,0,0,1,-176,-96) translate(315,151)" stroke-linecap="butt">
      <text x="0" xml:space="preserve" y="12" clip-path="url(#clipPath4)" stroke="none">+setTreeRoot(p_tR : *RETreeNode)</text>
      <text x="205" xml:space="preserve" y="12" clip-path="url(#clipPath4)" stroke="none"> </text>
      <text x="0" xml:space="preserve" y="27" clip-path="url(#clipPath4)" stroke="none">+getTreeRoot() : *RETreeNode</text>
      <text x="180" xml:space="preserve" y="27" clip-path="url(#clipPath4)" stroke="none"> </text>
      <text x="0" xml:space="preserve" y="42" clip-path="url(#clipPath4)" stroke="none">+toFSA() : *FiniteStateAutomaton</text>
      <text x="187" xml:space="preserve" y="42" clip-path="url(#clipPath4)" stroke="none"> </text>
      <text x="0" xml:space="preserve" y="57" clip-path="url(#clipPath4)" stroke="none">+toRG() : *RegularGrammar</text>
      <text x="163" xml:space="preserve" y="57" clip-path="url(#clipPath4)" stroke="none"> </text>
      <text x="0" xml:space="preserve" y="72" clip-path="url(#clipPath4)" stroke="none">+toString() : string</text>
      <text x="105" xml:space="preserve" y="72" clip-path="url(#clipPath4)" stroke="none"> </text>
      <text x="0" xml:space="preserve" y="87" clip-path="url(#clipPath4)" stroke="none">+</text>
      <text font-style="italic" x="10" xml:space="preserve" y="87" clip-path="url(#clipPath4)" stroke="none">isOperator(s:string)</text>
    </g>
    <g fill="rgb(255,204,0)" transform="matrix(1,0,0,1,-176,-96)" stroke="rgb(255,204,0)">
      <rect x="276" width="286" height="226" y="306" clip-path="url(#clipPath2)" stroke="none"/>
      <rect x="275" y="305" clip-path="url(#clipPath2)" fill="yellow" width="1" height="228" stroke="none"/>
      <rect x="276" y="305" clip-path="url(#clipPath2)" fill="yellow" width="286" height="1" stroke="none"/>
      <rect x="276" y="532" clip-path="url(#clipPath2)" fill="rgb(178,142,0)" width="287" height="1" stroke="none"/>
      <rect x="562" y="305" clip-path="url(#clipPath2)" fill="rgb(178,142,0)" width="1" height="227" stroke="none"/>
    </g>
    <g font-size="13" stroke-miterlimit="1.45" font-weight="bold" font-family="sans-serif" transform="matrix(1,0,0,1,-176,-96)" stroke-linecap="butt">
      <text x="379.2925" xml:space="preserve" y="323.4084" clip-path="url(#clipPath5)" stroke="none">RETreeNode</text>
    </g>
    <g transform="matrix(1,0,0,1,-176,-96)">
      <line y2="331" fill="none" x1="276" clip-path="url(#clipPath5)" x2="563" y1="331"/>
      <text stroke-linecap="butt" x="280.8133" y="347.7521" clip-path="url(#clipPath5)" font-family="sans-serif" stroke="none" xml:space="preserve" stroke-miterlimit="1.45">-content : string</text>
      <line y2="355" fill="none" x1="276" clip-path="url(#clipPath5)" x2="563" y1="355"/>
      <text stroke-linecap="butt" x="280.8133" y="371.8849" clip-path="url(#clipPath5)" font-family="sans-serif" stroke="none" xml:space="preserve" stroke-miterlimit="1.45">+isOperator() : bool</text>
      <text stroke-linecap="butt" x="280.8133" y="386.0177" clip-path="url(#clipPath5)" font-family="sans-serif" stroke="none" xml:space="preserve" stroke-miterlimit="1.45">+getLeft() : *RETreeNode</text>
      <text stroke-linecap="butt" x="280.8133" y="400.1505" clip-path="url(#clipPath5)" font-family="sans-serif" stroke="none" xml:space="preserve" stroke-miterlimit="1.45">+getRight() : *RETreeNode</text>
      <text stroke-linecap="butt" x="280.8133" y="414.2834" clip-path="url(#clipPath5)" font-family="sans-serif" stroke="none" xml:space="preserve" stroke-miterlimit="1.45">+setLeft(p_l : *RETreeNode)</text>
      <text stroke-linecap="butt" x="280.8133" y="428.4162" clip-path="url(#clipPath5)" font-family="sans-serif" stroke="none" xml:space="preserve" stroke-miterlimit="1.45">+setRight(p_r : *RETreeNode)</text>
      <text stroke-linecap="butt" x="280.8133" y="442.549" clip-path="url(#clipPath5)" font-family="sans-serif" stroke="none" xml:space="preserve" stroke-miterlimit="1.45">+getContent() : string</text>
      <text stroke-linecap="butt" x="280.8133" y="456.6818" clip-path="url(#clipPath5)" font-family="sans-serif" stroke="none" xml:space="preserve" stroke-miterlimit="1.45">+setContent(c : string)</text>
      <text stroke-linecap="butt" x="280.8133" y="470.8146" clip-path="url(#clipPath5)" font-family="sans-serif" stroke="none" xml:space="preserve" stroke-miterlimit="1.45">+isEmpty() : bool</text>
      <text stroke-linecap="butt" x="280.8133" y="484.9474" clip-path="url(#clipPath5)" font-family="sans-serif" stroke="none" xml:space="preserve" stroke-miterlimit="1.45">+simplify()</text>
      <text stroke-linecap="butt" x="280.8133" y="499.0802" clip-path="url(#clipPath5)" font-family="sans-serif" stroke="none" xml:space="preserve" stroke-miterlimit="1.45">+clone() : *RETreeNoide</text>
      <text stroke-linecap="butt" x="280.8133" y="513.2131" clip-path="url(#clipPath5)" font-family="sans-serif" stroke="none" xml:space="preserve" stroke-miterlimit="1.45">+toFSA(labelNum : *int) : *FiniteStateAutomaton</text>
      <text stroke-linecap="butt" x="280.8133" y="527.3459" clip-path="url(#clipPath5)" font-family="sans-serif" stroke="none" xml:space="preserve" stroke-miterlimit="1.45">+toString():string</text>
    </g>
  </g>
</svg>
